<svg width="25" height="25" viewBox="0 0 25 25" fill="none" xmlns="http://www.w3.org/2000/svg">
<path d="M15.3647 23.4375H9.11467C3.45842 23.4375 1.04175 21.0208 1.04175 15.3645V9.11454C1.04175 3.45829 3.45842 1.04163 9.11467 1.04163H15.3647C21.0209 1.04163 23.4376 3.45829 23.4376 9.11454V15.3645C23.4376 21.0208 21.0209 23.4375 15.3647 23.4375ZM9.11467 2.60413C4.31258 2.60413 2.60425 4.31246 2.60425 9.11454V15.3645C2.60425 20.1666 4.31258 21.875 9.11467 21.875H15.3647C20.1667 21.875 21.8751 20.1666 21.8751 15.3645V9.11454C21.8751 4.31246 20.1667 2.60413 15.3647 2.60413H9.11467Z" fill="#576067"/>
<path d="M12.5001 16.9271C11.3268 16.9243 10.2023 16.457 9.3727 15.6274C8.54306 14.7977 8.07575 13.6733 8.073 12.5C8.07575 11.3267 8.54306 10.2023 9.3727 9.37262C10.2023 8.54298 11.3268 8.07567 12.5001 8.07292C13.6734 8.07567 14.7978 8.54298 15.6275 9.37262C16.4571 10.2023 16.9244 11.3267 16.9272 12.5C16.9244 13.6733 16.4571 14.7977 15.6275 15.6274C14.7978 16.457 13.6734 16.9243 12.5001 16.9271ZM12.5001 9.63542C10.9167 9.63542 9.6355 10.9167 9.6355 12.5C9.6355 14.0833 10.9167 15.3646 12.5001 15.3646C14.0834 15.3646 15.3647 14.0833 15.3647 12.5C15.3647 10.9167 14.0834 9.63542 12.5001 9.63542ZM17.7084 7.8125C17.573 7.8125 17.4376 7.78125 17.3126 7.72917C17.1876 7.67709 17.073 7.60417 16.9688 7.51042C16.8751 7.40625 16.7917 7.29167 16.7397 7.16667C16.6895 7.04083 16.6647 6.9063 16.6667 6.77084C16.6667 6.63542 16.6876 6.5 16.7397 6.375C16.8022 6.23959 16.8751 6.13542 16.9688 6.03125C17.0209 5.98959 17.073 5.9375 17.1251 5.90625C17.1876 5.86459 17.2501 5.83334 17.3126 5.8125C17.5024 5.73356 17.7113 5.7122 17.9132 5.7511C18.1151 5.79 18.3011 5.88743 18.448 6.03125C18.5417 6.13542 18.6147 6.23959 18.6667 6.375C18.7188 6.5 18.7501 6.63542 18.7501 6.77084C18.7501 6.90625 18.7188 7.04167 18.6667 7.16667C18.6147 7.29167 18.5417 7.40625 18.448 7.51042C18.3438 7.60417 18.2292 7.67709 18.1042 7.72917C17.9792 7.78125 17.8438 7.8125 17.7084 7.8125Z" fill="#576067"/>
</svg>
