<svg width="25" height="25" viewBox="0 0 25 25" fill="none" xmlns="http://www.w3.org/2000/svg">
<path d="M17.7083 21.6145H7.29159C3.70825 21.6145 1.302 19.2083 1.302 15.625V9.37496C1.302 5.79163 3.70825 3.38538 7.29159 3.38538H17.7083C21.2916 3.38538 23.6978 5.79163 23.6978 9.37496V15.625C23.6978 19.2083 21.2916 21.6145 17.7083 21.6145ZM7.29159 4.94788C4.60409 4.94788 2.8645 6.68746 2.8645 9.37496V15.625C2.8645 18.3125 4.60409 20.052 7.29159 20.052H17.7083C20.3958 20.052 22.1353 18.3125 22.1353 15.625V9.37496C22.1353 6.68746 20.3958 4.94788 17.7083 4.94788H7.29159Z" fill="#6C3EB8"/>
<path d="M11.0312 16.1771C10.7292 16.1771 10.4375 16.1042 10.1771 15.9584C9.57292 15.6146 9.21875 14.9167 9.21875 14.0521V10.9688C9.21875 10.1042 9.5625 9.40628 10.1771 9.06253C10.7813 8.71878 11.5625 8.78128 12.3021 9.22919L14.875 10.7709C15.5833 11.1979 15.9896 11.8334 15.9896 12.5104C15.9896 13.1875 15.5833 13.8229 14.875 14.25L12.3021 15.7917C11.875 16.0417 11.4375 16.1771 11.0312 16.1771ZM11.0312 10.3854C10.9988 10.385 10.9667 10.3921 10.9375 10.4063C10.8646 10.4479 10.7813 10.6354 10.7813 10.9584V14.0417C10.7813 14.3542 10.8646 14.5417 10.9375 14.5938C11.0208 14.6354 11.2187 14.6146 11.4896 14.4479L14.0625 12.9063C14.3229 12.75 14.4167 12.5938 14.4167 12.5C14.4167 12.4063 14.3229 12.2604 14.0625 12.0938L11.4896 10.5521C11.3021 10.4375 11.1354 10.3854 11.0312 10.3854Z" fill="#6C3EB8"/>
</svg>
