<svg width="21" height="22" viewBox="0 0 21 22" fill="none" xmlns="http://www.w3.org/2000/svg">
<g clip-path="url(#clip0_3_35)">
<path d="M20.4204 19.6735L15.3901 14.6433C16.7602 12.9676 17.4338 10.8294 17.2716 8.67099C17.1094 6.51259 16.1238 4.4991 14.5187 3.04699C12.9136 1.59489 10.8117 0.815258 8.64792 0.869369C6.48411 0.923481 4.42387 1.80719 2.89335 3.33771C1.36283 4.86824 0.479114 6.92847 0.425003 9.09228C0.370891 11.2561 1.15052 13.3579 2.60263 14.963C4.05474 16.5681 6.06823 17.5537 8.22663 17.7159C10.385 17.8781 12.5232 17.2045 14.1989 15.8345L19.2292 20.8647C19.3899 21.0084 19.5995 21.085 19.815 21.079C20.0304 21.0729 20.2354 20.9846 20.3878 20.8322C20.5403 20.6798 20.6286 20.4748 20.6346 20.2593C20.6407 20.0439 20.564 19.8343 20.4204 19.6735ZM8.87159 16.0556C7.53772 16.0563 6.23362 15.6613 5.12428 14.9206C4.01494 14.1799 3.1502 13.1269 2.63946 11.8946C2.12872 10.6624 1.99492 9.30639 2.255 7.99811C2.51507 6.68983 3.15733 5.48808 4.10052 4.54489C5.04372 3.60169 6.24547 2.95944 7.55375 2.69936C8.86202 2.43929 10.218 2.57309 11.4503 3.08383C12.6825 3.59457 13.7356 4.45931 14.4762 5.56865C15.2169 6.67799 15.6119 7.98208 15.6113 9.31596C15.6088 11.1027 14.8979 12.8155 13.6345 14.0789C12.3711 15.3423 10.6583 16.0531 8.87159 16.0556Z" fill="#959595"/>
</g>
<defs>
<clipPath id="clip0_3_35">
<rect width="20.2222" height="20.2222" fill="white" transform="translate(0.44458 0.888977)"/>
</clipPath>
</defs>
</svg>
