<svg width="28" height="24" viewBox="0 0 28 24" fill="none" xmlns="http://www.w3.org/2000/svg">
<g clip-path="url(#clip0_3_20)">
<path d="M25.129 14.4813C26.902 13.7404 28.097 12.2189 27.9938 10.2431C27.9651 9.69443 27.8418 9.15157 27.6365 8.64234C27.4471 8.1722 27.1416 7.77868 26.9242 7.32673C26.4769 6.39679 26.2716 5.36498 25.9007 4.405C24.3052 0.275255 19.0736 -0.977287 15.293 0.7597C13.5965 1.53915 12.2867 2.93406 11.4495 4.58951C12.7466 4.14243 14.2152 4.40277 15.2817 5.26594C15.2397 5.32342 15.1989 5.38124 15.1599 5.43983C13.38 4.13126 10.7821 4.74071 9.75048 6.68875C8.75326 8.57177 9.62527 10.9836 11.5894 11.7995C12.7793 12.2938 14.1735 12.1163 15.2011 11.3387C15.2453 11.3925 15.2913 11.4451 15.3382 11.4966C14.1418 12.5011 12.4185 12.7205 11.0111 12.0398C11.521 12.857 12.2357 13.5288 13.0507 14.0352C12.4473 15.13 12.0379 16.3634 12.0089 17.6214C11.9826 18.765 12.0443 20.0001 12.4575 21.0787C11.4086 21.0532 10.2067 20.8549 9.46956 20.0315C8.77334 19.2538 8.6397 18.116 8.64127 17.114C8.64321 15.8785 8.91604 14.6954 9.08151 13.4794C9.24626 12.2687 9.13983 11.0012 8.62319 9.88326C7.58372 7.63398 4.78373 6.31218 2.452 7.37044C0.172576 8.40497 -0.930048 11.5 0.970017 13.4319C1.74351 14.2183 2.92087 14.6347 3.99911 14.3116C5.00942 14.0088 5.81544 13.0956 5.91812 12.0317C6.02061 10.9698 5.29249 9.8567 4.22096 9.63839C3.67778 9.52772 3.15423 9.93668 3.19163 10.5086C3.20793 10.7579 3.34014 10.9931 3.54508 11.1364C3.77255 11.2954 4.06178 11.2854 4.19961 11.5637C4.46295 12.0953 3.87023 12.6629 3.38465 12.7397C2.79969 12.8322 2.20154 12.4166 1.90729 11.9363C1.22445 10.8218 2.01769 9.43359 3.08476 8.92002C4.10958 8.4268 5.34091 8.71872 6.19813 9.41767C6.94034 10.0229 7.34625 10.9284 7.45344 11.8682C7.58763 13.0447 7.23013 14.2055 7.08815 15.3654C6.94636 16.5238 6.89087 17.722 7.13176 18.8713C7.35443 19.9337 7.86198 20.9233 8.71585 21.6118C9.56867 22.2994 10.6473 22.6096 11.7224 22.7128C12.3964 22.7776 13.0764 22.7648 13.7506 22.7094C14.0639 22.9033 14.4305 23.0524 14.8574 23.1547C15.0102 23.6506 15.4691 23.9963 15.996 23.9963H26.6862C28.0073 23.9963 28.0159 22.3932 27.8514 21.4531C27.6806 20.477 27.1791 19.5741 26.3466 19.0161C26.3404 17.2784 25.8442 15.8598 25.129 14.4813ZM14.4711 9.83327C14.1582 10.16 13.7193 10.3645 13.2327 10.3645C12.2853 10.3645 11.5146 9.59243 11.5146 8.64331C11.5146 7.6942 12.2853 6.92208 13.2327 6.92208C13.7015 6.92208 14.1267 7.1116 14.437 7.41764C14.3826 7.79901 14.3557 8.22185 14.3557 8.70098C14.3557 9.12405 14.396 9.49811 14.4711 9.83327ZM18.4197 9.95083C18.5899 9.07675 19.1978 8.31552 19.5774 7.52171C19.91 6.82635 20.1224 6.06221 20.5653 5.42555C21.3676 4.27244 22.732 3.58184 24.1353 3.64427C24.8369 4.60779 25.0849 5.77466 25.4696 6.88259C25.6387 7.36949 25.8222 7.85215 26.0995 8.28853C26.4268 8.80372 26.6746 9.3427 26.7662 9.95178L26.4749 9.8582C26.041 9.68293 25.7637 10.3511 26.0494 10.6373L26.6105 11.1994C26.6417 11.2306 26.6767 11.255 26.7131 11.2763C26.2201 13.2107 23.9241 13.7761 22.2009 13.9483C20.1981 13.8186 17.9855 12.1813 18.4197 9.95083ZM24.1555 22.6227H16.1531H16.1521H16.1499C16.1226 22.347 16.0887 22.0942 16.2624 21.8638C16.4542 21.6093 16.7744 21.4434 17.0546 21.3092C17.9099 20.8994 18.8689 20.6806 19.7996 20.5267C20.7562 20.3686 21.8606 20.2032 22.8026 20.5094C23.7001 20.8011 24.2999 21.6593 24.1555 22.6227ZM24.5218 22.2502C24.4341 20.954 23.4718 20.1599 22.2253 20.0235C23.0302 19.964 23.9143 19.9639 24.577 20.4965C25.1815 20.9823 25.4528 21.8659 25.3448 22.6227H24.5156C24.5303 22.4987 24.5302 22.3747 24.5218 22.2502ZM25.5687 21.3534C25.3109 20.5479 24.6759 19.9778 23.8661 19.7592C24.656 19.7376 25.4671 19.894 25.9949 20.534C26.4492 21.0847 26.6313 21.9201 26.5354 22.6227H25.7047C25.7544 22.203 25.6972 21.7547 25.5687 21.3534ZM25.4036 18.8702C25.4036 19.1225 25.3827 19.3781 25.3351 19.6259C24.876 19.4384 24.3804 19.3851 23.8882 19.4015C23.498 18.0251 23.702 16.4887 24.4811 15.2844C24.9996 16.393 25.4036 17.6341 25.4036 18.8702ZM22.7919 8.59054C22.7686 7.83229 23.1855 7.20416 23.7232 7.18755C24.2609 7.17095 24.7157 7.77218 24.739 8.53043C24.7623 9.28867 24.3454 9.9168 23.8077 9.93341C23.27 9.95001 22.8152 9.34879 22.7919 8.59054Z" fill="#753F8C"/>
</g>
<defs>
<clipPath id="clip0_3_20">
<rect width="28" height="24" fill="white"/>
</clipPath>
</defs>
</svg>
